<svg xmlns="http://www.w3.org/2000/svg" viewBox="0 0 512 512">
  <defs>
    <linearGradient id="gold" x1="0" x2="0" y1="0" y2="1">
      <stop offset="0%" stop-color="#f8d34a"/>
      <stop offset="100%" stop-color="#c99015"/>
    </linearGradient>
    <linearGradient id="goldDark" x1="0" x2="1" y1="0" y2="1">
      <stop offset="0%" stop-color="#e6b21e"/>
      <stop offset="100%" stop-color="#a87010"/>
    </linearGradient>
  </defs>

  <!-- Trophy -->
  <g transform="translate(0,10)">
    <rect x="160" y="110" width="192" height="38" rx="10" fill="url(#goldDark)"/>
    <path d="M176 140c0 90 50 140 80 156 30-16 80-66 80-156V110H176z" fill="url(#gold)"/>
    <path d="M150 150c-44 0-70 26-70 62 0 36 28 66 78 70 10-6 18-14 24-22-38-6-62-26-62-48 0-22 18-40 46-40h4V150z" fill="url(#goldDark)"/>
    <path d="M362 150c44 0 70 26 70 62 0 36-28 66-78 70-10-6-18-14-24-22 38-6 62-26 62-48 0-22-18-40-46-40h-4V150z" fill="url(#goldDark)"/>
    <path d="M230 296h52c0 26-10 46-26 58-16-12-26-32-26-58z" fill="url(#goldDark)"/>
    <rect x="200" y="352" width="112" height="40" rx="10" fill="url(#goldDark)"/>
  </g>

  <!-- Ladder (left side, leaning up the trophy) -->
  <g transform="translate(90,80) rotate(-18 0 0)">
    <rect x="110" y="130" width="16" height="250" rx="6" fill="#2e7d32"/>
    <rect x="160" y="120" width="16" height="260" rx="6" fill="#2e7d32"/>
    <rect x="112" y="150" width="64" height="10" rx="4" fill="#388e3c"/>
    <rect x="112" y="190" width="64" height="10" rx="4" fill="#388e3c"/>
    <rect x="112" y="230" width="64" height="10" rx="4" fill="#388e3c"/>
    <rect x="112" y="270" width="64" height="10" rx="4" fill="#388e3c"/>
    <rect x="112" y="310" width="64" height="10" rx="4" fill="#388e3c"/>
  </g>
</svg>
