<svg xmlns="http://www.w3.org/2000/svg" width="1080" height="1920" viewBox="0 0 1080 1920">
  <defs>
    <linearGradient id="bg" x1="0" y1="0" x2="1" y2="1">
      <stop offset="0%" stop-color="#f0fdf4"/>
      <stop offset="100%" stop-color="#d1fae5"/>
    </linearGradient>
  </defs>
  <rect width="1080" height="1920" fill="url(#bg)"/>
  <circle cx="120" cy="200" r="110" fill="#86efac" opacity="0.28"/>
  <circle cx="935" cy="150" r="100" fill="#bfdbfe" opacity="0.32"/>

  <rect x="72" y="72" width="260" height="72" rx="26" fill="#ffffff" opacity="0.92"/>
  <rect x="90" y="88" width="40" height="40" rx="14" fill="#166534"/>
  <text x="152" y="117" font-family="Arial, sans-serif" font-size="26" font-weight="700" fill="#0f172a">Sportsladder</text>
  <circle cx="975" cy="108" r="28" fill="#166534"/>
  <text x="975" y="118" text-anchor="middle" font-family="Arial, sans-serif" font-size="22" font-weight="700" fill="#ffffff">F</text>

  <rect x="60" y="180" width="960" height="1600" rx="44" fill="#ffffff" stroke="#dcfce7" stroke-width="2"/>

  <rect x="108" y="240" width="500" height="96" rx="24" fill="#f0fdf4" stroke="#bbf7d0" stroke-width="2"/>
  <text x="138" y="283" font-family="Arial, sans-serif" font-size="20" font-weight="700" fill="#166534">Riverside Tennisclub Singles</text>
  <text x="138" y="313" font-family="Arial, sans-serif" font-size="18" fill="#4b5563">Singles ladder</text>

  <text x="540" y="430" text-anchor="middle" font-family="Arial, sans-serif" font-size="38" font-weight="700" fill="#0f172a">Matches</text>

  <rect x="388" y="458" width="304" height="64" rx="22" fill="#ffffff" stroke="#dcfce7" stroke-width="2"/>
  <text x="540" y="500" text-anchor="middle" font-family="Arial, sans-serif" font-size="24" font-weight="700" fill="#166534">3 Pending matches</text>

  <rect x="280" y="556" width="220" height="68" rx="18" fill="#ffffff" stroke="#d1d5db" stroke-width="2"/>
  <text x="390" y="600" text-anchor="middle" font-family="Arial, sans-serif" font-size="24" font-weight="700" fill="#475569">Rankings</text>
  <rect x="520" y="556" width="220" height="68" rx="18" fill="#16a34a"/>
  <text x="630" y="600" text-anchor="middle" font-family="Arial, sans-serif" font-size="24" font-weight="700" fill="#ffffff">Matches</text>

  <rect x="352" y="670" width="376" height="62" rx="20" fill="#16a34a"/>
  <text x="540" y="710" text-anchor="middle" font-family="Arial, sans-serif" font-size="24" font-weight="700" fill="#ffffff">Show all matches</text>

  <rect x="108" y="776" width="864" height="332" rx="28" fill="#f0fdf4" stroke="#bbf7d0" stroke-width="2"/>
  <circle cx="230" cy="888" r="40" fill="#dcfce7"/>
  <text x="230" y="902" text-anchor="middle" font-family="Arial, sans-serif" font-size="28" font-weight="700" fill="#166534">E</text>
  <text x="230" y="946" text-anchor="middle" font-family="Arial, sans-serif" font-size="22" font-weight="700" fill="#166534">Emma Wilson</text>
  <text x="230" y="976" text-anchor="middle" font-family="Arial, sans-serif" font-size="20" fill="#6b7280">Rank #1</text>

  <circle cx="850" cy="888" r="40" fill="#dcfce7"/>
  <text x="850" y="902" text-anchor="middle" font-family="Arial, sans-serif" font-size="28" font-weight="700" fill="#166534">S</text>
  <text x="850" y="946" text-anchor="middle" font-family="Arial, sans-serif" font-size="22" font-weight="700" fill="#166534">Sarah Chen</text>
  <text x="850" y="976" text-anchor="middle" font-family="Arial, sans-serif" font-size="20" fill="#6b7280">Rank #2</text>

  <text x="540" y="884" text-anchor="middle" font-family="Arial, sans-serif" font-size="26" font-weight="700" fill="#16a34a">VS</text>
  <rect x="474" y="914" width="132" height="44" rx="18" fill="#eff6ff" stroke="#93c5fd" stroke-width="2"/>
  <text x="540" y="943" text-anchor="middle" font-family="Arial, sans-serif" font-size="18" font-weight="700" fill="#2563eb">Scheduled</text>
  <text x="540" y="991" text-anchor="middle" font-family="Arial, sans-serif" font-size="20" fill="#475569">Thu 19:30</text>

  <rect x="388" y="1018" width="304" height="64" rx="18" fill="#16a34a"/>
  <text x="540" y="1060" text-anchor="middle" font-family="Arial, sans-serif" font-size="22" font-weight="700" fill="#ffffff">Reschedule</text>

  <rect x="108" y="1140" width="864" height="258" rx="28" fill="#f0fdf4" stroke="#bbf7d0" stroke-width="2"/>
  <text x="148" y="1200" font-family="Arial, sans-serif" font-size="24" font-weight="700" fill="#166534">Next up</text>
  <text x="148" y="1244" font-family="Arial, sans-serif" font-size="26" font-weight="700" fill="#1f2937">James Rodriguez vs Lotte de Vries</text>
  <rect x="148" y="1272" width="120" height="40" rx="16" fill="#fef9c3" stroke="#fde68a" stroke-width="2"/>
  <text x="208" y="1298" text-anchor="middle" font-family="Arial, sans-serif" font-size="18" font-weight="700" fill="#a16207">Pending</text>
  <text x="148" y="1350" font-family="Arial, sans-serif" font-size="22" fill="#475569">Not scheduled yet</text>

  <rect x="108" y="1430" width="864" height="214" rx="28" fill="#eff6ff" stroke="#bfdbfe" stroke-width="2"/>
  <text x="148" y="1490" font-family="Arial, sans-serif" font-size="24" font-weight="700" fill="#1d4ed8">Completed this round</text>
  <text x="148" y="1536" font-family="Arial, sans-serif" font-size="26" font-weight="700" fill="#1f2937">Lotte de Vries vs Nina van Dijk</text>
  <text x="148" y="1584" font-family="Arial, sans-serif" font-size="22" fill="#475569">Score 6-4 • Winner Lotte de Vries</text>
</svg>
