<svg xmlns="http://www.w3.org/2000/svg" width="1080" height="1920" viewBox="0 0 1080 1920">
  <defs>
    <linearGradient id="bg" x1="0" y1="0" x2="1" y2="1">
      <stop offset="0%" stop-color="#f0fdf4"/>
      <stop offset="100%" stop-color="#d1fae5"/>
    </linearGradient>
  </defs>
  <rect width="1080" height="1920" fill="url(#bg)"/>
  <circle cx="150" cy="190" r="120" fill="#86efac" opacity="0.28"/>
  <circle cx="960" cy="120" r="110" fill="#fde68a" opacity="0.32"/>

  <rect x="72" y="72" width="260" height="72" rx="26" fill="#ffffff" opacity="0.92"/>
  <rect x="90" y="88" width="40" height="40" rx="14" fill="#166534"/>
  <text x="152" y="117" font-family="Arial, sans-serif" font-size="26" font-weight="700" fill="#0f172a">Sportsladder</text>
  <circle cx="975" cy="108" r="28" fill="#166534"/>
  <text x="975" y="118" text-anchor="middle" font-family="Arial, sans-serif" font-size="22" font-weight="700" fill="#ffffff">F</text>

  <rect x="60" y="180" width="960" height="1600" rx="44" fill="#ffffff" stroke="#dcfce7" stroke-width="2"/>

  <rect x="108" y="240" width="500" height="96" rx="24" fill="#f0fdf4" stroke="#bbf7d0" stroke-width="2"/>
  <text x="138" y="283" font-family="Arial, sans-serif" font-size="20" font-weight="700" fill="#166534">Riverside Tennisclub Singles</text>
  <text x="138" y="313" font-family="Arial, sans-serif" font-size="18" fill="#4b5563">Singles ladder</text>

  <text x="540" y="430" text-anchor="middle" font-family="Arial, sans-serif" font-size="38" font-weight="700" fill="#0f172a">Rankings</text>

  <rect x="388" y="458" width="304" height="64" rx="22" fill="#ffffff" stroke="#dcfce7" stroke-width="2"/>
  <text x="540" y="500" text-anchor="middle" font-family="Arial, sans-serif" font-size="24" font-weight="700" fill="#166534">12 Players</text>

  <rect x="280" y="556" width="220" height="68" rx="18" fill="#16a34a"/>
  <text x="390" y="600" text-anchor="middle" font-family="Arial, sans-serif" font-size="24" font-weight="700" fill="#ffffff">Rankings</text>
  <rect x="520" y="556" width="220" height="68" rx="18" fill="#ffffff" stroke="#d1d5db" stroke-width="2"/>
  <text x="630" y="600" text-anchor="middle" font-family="Arial, sans-serif" font-size="24" font-weight="700" fill="#475569">Matches</text>

  <text x="540" y="675" text-anchor="middle" font-family="Arial, sans-serif" font-size="24" font-weight="700" fill="#475569">Round 2026-R6: Mar 03 - Mar 16</text>

  <rect x="108" y="730" width="864" height="132" rx="24" fill="#ffffff" stroke="#e5e7eb" stroke-width="2"/>
  <text x="150" y="808" font-family="Arial, sans-serif" font-size="34" font-weight="700" fill="#ca8a04">#1</text>
  <circle cx="255" cy="794" r="34" fill="#dcfce7"/>
  <text x="255" y="806" text-anchor="middle" font-family="Arial, sans-serif" font-size="28" font-weight="700" fill="#166534">E</text>
  <text x="320" y="795" font-family="Arial, sans-serif" font-size="30" font-weight="700" fill="#1f2937">Emma Wilson</text>

  <rect x="108" y="884" width="864" height="132" rx="24" fill="#ffffff" stroke="#e5e7eb" stroke-width="2"/>
  <text x="150" y="962" font-family="Arial, sans-serif" font-size="34" font-weight="700" fill="#6b7280">#2</text>
  <circle cx="255" cy="948" r="34" fill="#dcfce7"/>
  <text x="255" y="960" text-anchor="middle" font-family="Arial, sans-serif" font-size="28" font-weight="700" fill="#166534">S</text>
  <text x="320" y="949" font-family="Arial, sans-serif" font-size="30" font-weight="700" fill="#1f2937">Sarah Chen</text>
  <text x="845" y="950" font-family="Arial, sans-serif" font-size="22" font-weight="700" fill="#6b7280">Predicted #1</text>

  <rect x="108" y="1038" width="864" height="132" rx="24" fill="#ffffff" stroke="#e5e7eb" stroke-width="2"/>
  <text x="150" y="1116" font-family="Arial, sans-serif" font-size="34" font-weight="700" fill="#d97706">#3</text>
  <circle cx="255" cy="1102" r="34" fill="#dcfce7"/>
  <text x="255" y="1114" text-anchor="middle" font-family="Arial, sans-serif" font-size="28" font-weight="700" fill="#166534">J</text>
  <text x="320" y="1103" font-family="Arial, sans-serif" font-size="30" font-weight="700" fill="#1f2937">James Rodriguez</text>

  <rect x="108" y="1192" width="864" height="132" rx="24" fill="#ffffff" stroke="#e5e7eb" stroke-width="2"/>
  <text x="150" y="1270" font-family="Arial, sans-serif" font-size="34" font-weight="700" fill="#111827">#4</text>
  <circle cx="255" cy="1256" r="34" fill="#dcfce7"/>
  <text x="255" y="1268" text-anchor="middle" font-family="Arial, sans-serif" font-size="28" font-weight="700" fill="#166534">L</text>
  <text x="320" y="1257" font-family="Arial, sans-serif" font-size="30" font-weight="700" fill="#1f2937">Lotte de Vries</text>

  <rect x="108" y="1346" width="864" height="132" rx="24" fill="#ffffff" stroke="#e5e7eb" stroke-width="2"/>
  <text x="150" y="1424" font-family="Arial, sans-serif" font-size="34" font-weight="700" fill="#111827">#5</text>
  <circle cx="255" cy="1410" r="34" fill="#dcfce7"/>
  <text x="255" y="1422" text-anchor="middle" font-family="Arial, sans-serif" font-size="28" font-weight="700" fill="#166534">N</text>
  <text x="320" y="1411" font-family="Arial, sans-serif" font-size="30" font-weight="700" fill="#1f2937">Nina van Dijk</text>

  <rect x="108" y="1500" width="864" height="132" rx="24" fill="#ffffff" stroke="#e5e7eb" stroke-width="2"/>
  <text x="150" y="1578" font-family="Arial, sans-serif" font-size="34" font-weight="700" fill="#111827">#6</text>
  <circle cx="255" cy="1564" r="34" fill="#dcfce7"/>
  <text x="255" y="1576" text-anchor="middle" font-family="Arial, sans-serif" font-size="28" font-weight="700" fill="#166534">M</text>
  <text x="320" y="1565" font-family="Arial, sans-serif" font-size="30" font-weight="700" fill="#1f2937">Milan Vermeer</text>
</svg>
