<svg xmlns="http://www.w3.org/2000/svg" width="1080" height="1920" viewBox="0 0 1080 1920">
  <defs>
    <linearGradient id="bg" x1="0" y1="0" x2="1" y2="1">
      <stop offset="0%" stop-color="#f0fdf4"/>
      <stop offset="100%" stop-color="#dbeafe"/>
    </linearGradient>
  </defs>
  <rect width="1080" height="1920" fill="url(#bg)"/>
  <circle cx="940" cy="200" r="130" fill="#86efac" opacity="0.24"/>
  <circle cx="140" cy="260" r="120" fill="#bfdbfe" opacity="0.26"/>

  <rect x="72" y="72" width="260" height="72" rx="26" fill="#ffffff" opacity="0.92"/>
  <rect x="90" y="88" width="40" height="40" rx="14" fill="#166534"/>
  <text x="152" y="117" font-family="Arial, sans-serif" font-size="26" font-weight="700" fill="#0f172a">Sportsladder</text>
  <circle cx="975" cy="108" r="28" fill="#166534"/>
  <text x="975" y="118" text-anchor="middle" font-family="Arial, sans-serif" font-size="22" font-weight="700" fill="#ffffff">F</text>

  <rect x="60" y="180" width="960" height="1600" rx="44" fill="#ffffff" stroke="#dcfce7" stroke-width="2"/>
  <text x="120" y="282" font-family="Arial, sans-serif" font-size="42" font-weight="700" fill="#0f172a">Player Details</text>
  <text x="120" y="326" font-family="Arial, sans-serif" font-size="24" fill="#16a34a">Sarah Chen - Riverside Tennisclub Singles</text>

  <rect x="120" y="378" width="400" height="160" rx="24" fill="#ffffff" stroke="#e5e7eb" stroke-width="2"/>
  <text x="320" y="446" text-anchor="middle" font-family="Arial, sans-serif" font-size="54" font-weight="700" fill="#6b7280">#2</text>
  <text x="320" y="492" text-anchor="middle" font-family="Arial, sans-serif" font-size="22" fill="#475569">Current rank</text>

  <rect x="560" y="378" width="400" height="160" rx="24" fill="#ffffff" stroke="#e5e7eb" stroke-width="2"/>
  <text x="760" y="446" text-anchor="middle" font-family="Arial, sans-serif" font-size="54" font-weight="700" fill="#7c3aed">6</text>
  <text x="760" y="492" text-anchor="middle" font-family="Arial, sans-serif" font-size="22" fill="#475569">Completed matches</text>

  <rect x="120" y="578" width="840" height="232" rx="28" fill="#ffffff" stroke="#e5e7eb" stroke-width="2"/>
  <text x="152" y="638" font-family="Arial, sans-serif" font-size="28" font-weight="700" fill="#0f172a">Player information</text>
  <text x="152" y="694" font-family="Arial, sans-serif" font-size="22" fill="#1f2937">Email: sarah.chen@example.com</text>
  <text x="152" y="736" font-family="Arial, sans-serif" font-size="22" fill="#1f2937">Phone: +31 6 12 34 56 78</text>
  <text x="152" y="778" font-family="Arial, sans-serif" font-size="22" fill="#1f2937">Club: Riverside Tennisclub</text>

  <rect x="120" y="850" width="840" height="332" rx="28" fill="#ffffff" stroke="#e5e7eb" stroke-width="2"/>
  <text x="152" y="910" font-family="Arial, sans-serif" font-size="28" font-weight="700" fill="#0f172a">Recent match history</text>
  <rect x="152" y="944" width="776" height="70" rx="18" fill="#f9fafb"/>
  <text x="184" y="988" font-family="Arial, sans-serif" font-size="20" font-weight="700" fill="#166534">Win</text>
  <text x="292" y="988" font-family="Arial, sans-serif" font-size="20" fill="#1f2937">vs Emma Wilson</text>
  <text x="844" y="988" text-anchor="end" font-family="Arial, sans-serif" font-size="18" fill="#6b7280">6-4</text>
  <rect x="152" y="1032" width="776" height="70" rx="18" fill="#f9fafb"/>
  <text x="184" y="1076" font-family="Arial, sans-serif" font-size="20" font-weight="700" fill="#b91c1c">Loss</text>
  <text x="292" y="1076" font-family="Arial, sans-serif" font-size="20" fill="#1f2937">vs Lotte de Vries</text>
  <text x="844" y="1076" text-anchor="end" font-family="Arial, sans-serif" font-size="18" fill="#6b7280">4-6</text>

  <rect x="120" y="1222" width="840" height="232" rx="28" fill="#f0fdf4" stroke="#bbf7d0" stroke-width="2"/>
  <text x="152" y="1282" font-family="Arial, sans-serif" font-size="28" font-weight="700" fill="#166534">Upcoming matches</text>
  <text x="152" y="1332" font-family="Arial, sans-serif" font-size="24" font-weight="700" fill="#1f2937">vs Emma Wilson</text>
  <text x="152" y="1374" font-family="Arial, sans-serif" font-size="22" fill="#475569">Scheduled for Thu 19:30</text>
  <rect x="706" y="1314" width="190" height="52" rx="18" fill="#eff6ff" stroke="#93c5fd" stroke-width="2"/>
  <text x="801" y="1347" text-anchor="middle" font-family="Arial, sans-serif" font-size="18" font-weight="700" fill="#2563eb">Scheduled</text>

  <rect x="120" y="1492" width="840" height="214" rx="28" fill="#ffffff" stroke="#e5e7eb" stroke-width="2"/>
  <text x="152" y="1552" font-family="Arial, sans-serif" font-size="28" font-weight="700" fill="#0f172a">Position history</text>
  <text x="152" y="1602" font-family="Arial, sans-serif" font-size="22" fill="#475569">2026-R6  #2</text>
  <text x="152" y="1640" font-family="Arial, sans-serif" font-size="22" fill="#475569">2026-R5  #3</text>
  <text x="152" y="1678" font-family="Arial, sans-serif" font-size="22" fill="#475569">2026-R4  #3</text>
</svg>
