<svg xmlns="http://www.w3.org/2000/svg" width="1080" height="1920" viewBox="0 0 1080 1920">
  <defs>
    <linearGradient id="bg" x1="0" y1="0" x2="1" y2="1">
      <stop offset="0%" stop-color="#ecfdf5"/>
      <stop offset="100%" stop-color="#dcfce7"/>
    </linearGradient>
  </defs>
  <rect width="1080" height="1920" fill="url(#bg)"/>
  <circle cx="920" cy="160" r="120" fill="#86efac" opacity="0.26"/>
  <circle cx="150" cy="240" r="140" fill="#bfdbfe" opacity="0.22"/>

  <rect x="72" y="72" width="260" height="72" rx="26" fill="#ffffff" opacity="0.92"/>
  <rect x="90" y="88" width="40" height="40" rx="14" fill="#166534"/>
  <text x="152" y="117" font-family="Arial, sans-serif" font-size="26" font-weight="700" fill="#0f172a">Sportsladder</text>
  <circle cx="975" cy="108" r="28" fill="#166534"/>
  <text x="975" y="118" text-anchor="middle" font-family="Arial, sans-serif" font-size="22" font-weight="700" fill="#ffffff">F</text>

  <rect x="60" y="180" width="960" height="1600" rx="44" fill="#ffffff" stroke="#dcfce7" stroke-width="2"/>
  <text x="120" y="284" font-family="Arial, sans-serif" font-size="44" font-weight="700" fill="#0f172a">My Ladder</text>
  <text x="120" y="330" font-family="Arial, sans-serif" font-size="24" fill="#16a34a">Join your club ladder and set your match frequency</text>

  <text x="120" y="406" font-family="Arial, sans-serif" font-size="20" font-weight="700" fill="#475569">Club</text>
  <rect x="120" y="428" width="840" height="86" rx="20" fill="#ffffff" stroke="#d1d5db" stroke-width="2"/>
  <text x="152" y="482" font-family="Arial, sans-serif" font-size="28" font-weight="700" fill="#1f2937">Riverside Tennisclub</text>

  <rect x="120" y="566" width="840" height="320" rx="28" fill="#ffffff" stroke="#dcfce7" stroke-width="2"/>
  <text x="152" y="626" font-family="Arial, sans-serif" font-size="30" font-weight="700" fill="#0f172a">Singles ladder</text>
  <rect x="760" y="594" width="152" height="48" rx="18" fill="#dcfce7"/>
  <text x="836" y="625" text-anchor="middle" font-family="Arial, sans-serif" font-size="18" font-weight="700" fill="#166534">Joined</text>
  <text x="152" y="694" font-family="Arial, sans-serif" font-size="20" font-weight="700" fill="#475569">Match frequency</text>
  <rect x="152" y="714" width="220" height="62" rx="16" fill="#f0fdf4" stroke="#bbf7d0" stroke-width="2"/>
  <text x="262" y="754" text-anchor="middle" font-family="Arial, sans-serif" font-size="22" font-weight="700" fill="#166534">1 match</text>
  <text x="152" y="824" font-family="Arial, sans-serif" font-size="22" fill="#475569">Automatically used for the next round.</text>

  <rect x="120" y="918" width="840" height="390" rx="28" fill="#ffffff" stroke="#dcfce7" stroke-width="2"/>
  <text x="152" y="978" font-family="Arial, sans-serif" font-size="30" font-weight="700" fill="#0f172a">Doubles ladder</text>
  <rect x="760" y="946" width="152" height="48" rx="18" fill="#dcfce7"/>
  <text x="836" y="977" text-anchor="middle" font-family="Arial, sans-serif" font-size="18" font-weight="700" fill="#166534">Joined</text>
  <text x="152" y="1046" font-family="Arial, sans-serif" font-size="20" font-weight="700" fill="#475569">Partner</text>
  <rect x="152" y="1068" width="656" height="62" rx="16" fill="#ffffff" stroke="#d1d5db" stroke-width="2"/>
  <text x="182" y="1108" font-family="Arial, sans-serif" font-size="22" font-weight="700" fill="#1f2937">Sarah Chen</text>
  <text x="152" y="1186" font-family="Arial, sans-serif" font-size="20" font-weight="700" fill="#475569">Match frequency</text>
  <rect x="152" y="1208" width="220" height="62" rx="16" fill="#f0fdf4" stroke="#bbf7d0" stroke-width="2"/>
  <text x="262" y="1248" text-anchor="middle" font-family="Arial, sans-serif" font-size="22" font-weight="700" fill="#166534">2 matches</text>

  <rect x="120" y="1350" width="840" height="240" rx="28" fill="#ffffff" stroke="#dcfce7" stroke-width="2"/>
  <text x="152" y="1412" font-family="Arial, sans-serif" font-size="24" font-weight="700" fill="#0f172a">Team avatar</text>
  <rect x="152" y="1440" width="124" height="124" rx="28" fill="#dcfce7"/>
  <text x="214" y="1512" text-anchor="middle" font-family="Arial, sans-serif" font-size="36" font-weight="700" fill="#166534">SC</text>
  <rect x="708" y="1492" width="188" height="64" rx="20" fill="#16a34a"/>
  <text x="802" y="1534" text-anchor="middle" font-family="Arial, sans-serif" font-size="22" font-weight="700" fill="#ffffff">Save settings</text>
</svg>
